<svg width="18" height="18" viewBox="0 0 18 18" fill="none" xmlns="http://www.w3.org/2000/svg">
<g clip-path="url(#clip0_1926_4806)">
<path d="M7.40391 1.56065L7.15781 1.40631C6.67617 1.111 6.075 0.939438 5.55821 1.10045C5.00274 1.27342 4.55977 1.70127 4.32774 2.34393L3.99727 2.17377C3.42774 1.88057 3.12961 1.876 2.88246 1.98709C2.68524 2.07534 2.47957 2.28768 2.24649 2.59776L5.14336 4.83756C5.59688 4.98522 6.26133 4.9817 6.92578 4.80944C7.59375 4.63717 8.2582 4.29967 8.74336 3.84616L9.83672 1.14264C8.87344 0.381509 7.99453 0.822368 7.40391 1.56065ZM9.27071 4.25045C8.67305 4.85514 7.7836 5.26295 7.09102 5.44577C6.84844 5.50905 6.60586 5.55475 6.37031 5.57936C6.24024 5.79381 6.13125 6.01178 6.04688 6.22975C6.21563 7.08756 6.53203 7.79069 7.00664 8.36725L6.50039 8.78913C6.2086 8.43756 5.94844 8.05788 5.75156 7.636C5.71992 8.45163 5.90274 9.29537 6.20156 10.1743L5.5793 10.3852C5.03086 8.78209 4.84453 7.1403 5.61445 5.59342C5.3543 5.57233 5.1082 5.52311 4.87969 5.44225L4.86914 5.43874C4.71797 5.58288 4.57383 5.73405 4.43672 5.89225C3.32684 7.17897 2.71547 8.89108 3.03539 10.2235C3.2066 10.9372 3.51352 11.6122 3.95508 12.1887C4.60195 12.1747 5.21367 12.1887 5.76914 12.3997C6.03281 12.3715 6.30352 12.354 6.58477 12.354C7.58672 12.354 8.49375 12.5403 9.1793 12.8637C9.44649 12.9903 9.68906 13.1415 9.88242 13.3137C9.88242 13.1274 9.91055 12.927 9.9668 12.7794C9.65391 12.484 9.45703 12.1255 9.45703 11.7176C9.45703 11.1516 9.83321 10.684 10.3781 10.3465C10.3781 10.1848 10.4098 10.0301 10.466 9.88249C10.1109 9.57663 9.88242 9.19694 9.88242 8.75397C9.88242 8.47624 9.97383 8.22311 10.1285 7.99459C9.97383 7.76959 9.88242 7.51647 9.88242 7.23874C9.88242 7.10163 9.90352 6.97506 9.94219 6.85202C9.60117 6.54967 9.38672 6.17702 9.38672 5.74811C9.38672 5.32272 9.59766 4.95358 9.93516 4.65475C9.72774 4.49303 9.50625 4.35592 9.27071 4.25045ZM13.1871 4.33131C12.273 4.33131 11.4469 4.52467 10.8809 4.80944C10.3113 5.0942 10.0441 5.44577 10.0441 5.74811C10.0441 6.05397 10.3113 6.40553 10.8809 6.6903C11.4469 6.97506 12.273 7.16842 13.1871 7.16842C13.5844 7.16842 13.9605 7.12975 14.3086 7.06647V6.46881C14.7973 6.39499 15.2016 6.26139 15.4617 6.08913V6.70788C15.9012 6.58131 16.323 6.11374 16.3336 5.74811C16.3336 5.44577 16.0664 5.0942 15.4969 4.80944C14.9273 4.52467 14.1047 4.33131 13.1871 4.33131ZM16.5797 6.71139C16.4637 6.83444 16.3266 6.95045 16.1719 7.05592L16.1789 8.07545C16.6219 7.81178 16.8293 7.50592 16.8293 7.23874C16.8293 7.06998 16.7484 6.88717 16.5797 6.71139ZM10.5398 7.2528C10.5504 7.55514 10.8176 7.89616 11.3766 8.17741C11.9461 8.46569 12.7688 8.65553 13.6863 8.65553C14.2594 8.65553 14.7973 8.57819 15.2578 8.45163L15.2824 7.49538C14.6777 7.70631 13.9605 7.82233 13.1871 7.82233C12.1852 7.82233 11.2746 7.62194 10.5855 7.27741C10.568 7.27038 10.5539 7.25983 10.5398 7.2528ZM10.6102 8.47624C10.5609 8.57116 10.5398 8.66608 10.5398 8.75397C10.5398 9.05983 10.807 9.41139 11.3766 9.69616C11.9461 9.98092 12.7688 10.1708 13.6863 10.1708C14.1504 10.1708 14.5898 10.1251 14.9871 10.0372V9.19342C14.5793 9.27077 14.1434 9.30944 13.6863 9.30944C12.6809 9.30944 11.7703 9.11256 11.0813 8.76452C10.909 8.68014 10.7508 8.5817 10.6102 8.47624ZM16.759 8.47624C16.5445 8.62741 16.3582 8.73991 16.1402 8.83483V9.61881C16.6078 9.34811 16.8293 9.0317 16.8293 8.75397C16.8293 8.66608 16.8082 8.57116 16.759 8.47624ZM17.0227 9.76998C16.9523 9.8403 16.875 9.90709 16.7906 9.97389V11.113C17.1527 10.8669 17.3285 10.5962 17.3285 10.3501C17.3285 10.1637 17.2266 9.96334 17.0227 9.76998ZM11.0426 10.2622C11.0391 10.2938 11.0355 10.3219 11.0355 10.3501C11.0355 10.6559 11.3027 11.004 11.8723 11.2887C12.4418 11.577 13.268 11.7669 14.182 11.7669C14.7059 11.7669 15.2051 11.7036 15.6375 11.5981V10.5469C15.0645 10.7298 14.4 10.8282 13.6863 10.8282C12.6809 10.8282 11.7703 10.6278 11.0813 10.2833C11.0672 10.2762 11.0566 10.2692 11.0426 10.2622ZM10.5645 11.0145C10.2586 11.243 10.1145 11.4926 10.1145 11.7176C10.1145 12.0235 10.3816 12.3715 10.9512 12.6598C11.5207 12.9446 12.3434 13.1344 13.2609 13.1344C13.5949 13.1344 13.9184 13.1098 14.2207 13.0641V12.4243H14.182C13.1766 12.4243 12.266 12.2239 11.577 11.8758C11.1375 11.6579 10.7719 11.3661 10.5645 11.0145ZM16.2773 12.0903C15.9996 12.1887 15.6973 12.2696 15.3738 12.3223V12.7477C15.4406 12.7196 15.5074 12.6915 15.5707 12.6598C15.9152 12.484 16.1473 12.2872 16.2773 12.0903ZM16.6008 12.7301C16.4672 12.8637 16.3125 12.9833 16.1402 13.0922V14.0977C16.6078 13.8305 16.8293 13.5141 16.8293 13.2364C16.8293 13.0747 16.7555 12.8989 16.6008 12.7301ZM4.3418 12.8286C3.9832 12.8321 3.59649 12.8778 3.1957 12.9727C2.39379 13.159 1.70438 13.5001 1.25438 13.8762C0.804377 14.2489 0.628595 14.6286 0.68133 14.8993C0.734064 15.17 1.0118 15.4196 1.5532 15.5637C2.09285 15.7044 2.84766 15.7114 3.64922 15.5251C3.97266 15.4477 4.275 15.3493 4.55274 15.2333V14.5055C5.06602 14.277 5.44922 14.0028 5.62149 13.7356V14.5934C6.04688 14.2278 6.21211 13.8622 6.16289 13.595C6.11367 13.3243 5.83242 13.0747 5.29102 12.934C5.02031 12.8637 4.69688 12.8251 4.3418 12.8286ZM6.61289 13.0114C6.70781 13.1485 6.77461 13.3032 6.80977 13.4755C6.84844 13.6864 6.83086 13.8903 6.76758 14.0907C7.11563 14.1821 7.43203 14.3051 7.70625 14.4598C7.86094 14.5442 8.00508 14.6462 8.13164 14.7516C8.44805 14.6778 8.71524 14.5723 8.90508 14.4458V15.17C9.4711 14.9028 9.73125 14.5758 9.73125 14.3157C9.73125 14.052 9.4711 13.7251 8.90156 13.4579C8.33555 13.1942 7.51992 13.0149 6.61289 13.0114ZM10.5434 13.1872C10.5398 13.2012 10.5398 13.2188 10.5398 13.2364C10.5398 13.5423 10.807 13.8903 11.3766 14.1786C11.9461 14.4633 12.7688 14.6532 13.6863 14.6532C14.1504 14.6532 14.5898 14.604 14.9871 14.5196V13.5739C14.4668 13.7145 13.8797 13.7919 13.2609 13.7919C12.2555 13.7919 11.3449 13.5915 10.6559 13.2469C10.6172 13.2258 10.5785 13.2048 10.5434 13.1872ZM10.6418 14.4985C10.5715 14.6145 10.5398 14.727 10.5398 14.836C10.5398 15.1419 10.807 15.4899 11.3766 15.7782C11.9461 16.063 12.7688 16.2528 13.6863 16.2528C14.1504 16.2528 14.5898 16.2036 14.9871 16.1192V15.1911C14.5793 15.2684 14.1434 15.3106 13.6863 15.3106C12.6809 15.3106 11.7703 15.1102 11.0813 14.7622C10.923 14.6848 10.7754 14.5969 10.6418 14.4985ZM16.7273 14.4985C16.5234 14.6356 16.3441 14.7446 16.1402 14.8325V15.6973C16.6078 15.4301 16.8293 15.1137 16.8293 14.836C16.8293 14.727 16.7977 14.6145 16.7273 14.4985ZM6.44063 14.6883C6.31758 14.843 6.17344 14.9907 6.01172 15.1243C5.46328 15.5848 4.68985 15.9575 3.79688 16.1649C3.47836 16.2387 3.16195 16.2844 2.8582 16.309C2.9707 16.4954 3.16863 16.6782 3.45832 16.8399C3.9375 17.1106 4.64063 17.2934 5.4211 17.2934C5.77617 17.2934 6.11367 17.2547 6.42305 17.188V16.4567C6.90821 16.3829 7.31602 16.2493 7.57617 16.077V16.7239C7.92774 16.4778 8.09649 16.2001 8.09649 15.9364C8.09649 15.6305 7.86797 15.3036 7.38633 15.0329C7.12617 14.8887 6.80274 14.7692 6.44063 14.6883Z" fill="#222222"/>
</g>
<defs>
<clipPath id="clip0_1926_4806">
<rect width="18" height="18" fill="white"/>
</clipPath>
</defs>
</svg>
