<svg width="18" height="18" viewBox="0 0 18 18" fill="none" xmlns="http://www.w3.org/2000/svg">
<path d="M3.96335 14.7379C4.8897 15.3282 6.12505 15.6604 7.5018 15.7342C6.12526 15.6604 4.88956 15.3281 3.96364 14.7371L3.96335 14.7379ZM3.96335 14.7379C3.35242 14.3479 2.87606 13.8458 2.58238 13.2316M3.96335 14.7379L2.58238 13.2316M2.58238 13.2316C2.87622 13.8458 3.35283 14.3473 3.96358 14.7371L2.58238 13.2316ZM3.60608 10.35H3.6081C3.13215 10.35 2.71367 10.5917 2.47119 10.9596C2.52222 10.8818 2.58129 10.8093 2.64755 10.7433C2.77356 10.6179 2.9231 10.5185 3.08759 10.4511C3.25208 10.3836 3.42828 10.3492 3.60608 10.35ZM10.8 11.25H11.25H11.7H14.4H14.85H15.3H15.75C15.9887 11.25 16.2176 11.3449 16.3864 11.5137C16.5552 11.6824 16.65 11.9114 16.65 12.15V15.75C16.65 15.9887 16.5552 16.2177 16.3864 16.3864C16.2176 16.5552 15.9887 16.65 15.75 16.65H10.35C10.1113 16.65 9.88239 16.5552 9.71361 16.3864C9.54482 16.2177 9.45 15.9887 9.45 15.75V12.15C9.45 11.9114 9.54482 11.6824 9.71361 11.5137C9.88239 11.3449 10.1113 11.25 10.35 11.25H10.8Z" stroke="#828282" stroke-width="0.9"/>
</svg>
